<?xml version="1.0" encoding="UTF-8"?>
<svg class="" width="512" height="512" enable-background="new 0 0 512 512" version="1.1" viewBox="0 0 464.01 464.01" xml:space="preserve" xmlns="http://www.w3.org/2000/svg">
<path class="" d="m464 120.01c-0.038-12.879-10.234-23.431-23.104-23.912-0.8-1.672-1.6-3.392-2.456-5.024 10.667-7.778 13.009-22.731 5.23-33.398-7.778-10.667-22.731-13.009-33.398-5.23-0.506 0.369-0.997 0.757-1.472 1.165-1.112-1.008-2.184-2.056-3.328-3.024 1.65-3.282 2.515-6.903 2.528-10.576 0.03-13.228-10.67-23.976-23.898-24.006-7.758-0.017-15.043 3.723-19.55 10.038-4.176-1.637-8.443-3.085-12.8-4.344-1.193-13.123-12.798-22.792-25.919-21.598-9.45 0.86-17.493 7.238-20.481 16.245-3.528 0.16-7.04 0.368-10.496 0.8-3.811-12.658-17.161-19.831-29.82-16.02-10.1 3.04-17.02 12.335-17.036 22.884 0.032 2.252 0.384 4.488 1.048 6.64l-0.344 0.168c-9.518-9.225-24.712-8.989-33.937 0.529-4.33 4.467-6.756 10.442-6.767 16.663 0 0.52 0.12 1.008 0.152 1.52-2.607-0.981-5.367-1.495-8.152-1.52-13.211-0.045-23.956 10.628-24.001 23.839-0.011 3.115 0.588 6.203 1.761 9.089-12.729 3.365-20.32 16.413-16.954 29.142 1.679 6.349 5.902 11.725 11.674 14.858-2.929 11.462-4.434 23.242-4.48 35.072h288c-0.056-6.981-0.617-13.948-1.68-20.848 6.077-4.492 9.668-11.596 9.68-19.152z" fill="#ffd884" style="" data-original="#ffd884" xmlns="http://www.w3.org/2000/svg"/>
<path class="" d="m428.92 464.01h-233.84l-35.08-304h304l-35.08 304z" fill="#a71132" style="" data-original="#e3472c" xmlns="http://www.w3.org/2000/svg"/>
<path class="" d="m288 464.01-8-304h-64l24 304h48z" fill="#f6f6e7" style="" data-original="#f6f6e7" xmlns="http://www.w3.org/2000/svg"/>
<g fill="#3c0c36" xmlns="http://www.w3.org/2000/svg">
	<path class="" d="m286.24 397.23 1.76 66.776h48l0.872-33.048c-17.894-9.637-34.845-20.929-50.632-33.728z" style="" data-original="#dd1c4b"/>
	<path class="" d="m174.81 221.1-14.808-61.088 35.08 304h44.92l-9.904-125.46c-26.14-35.033-44.945-74.979-55.288-117.45z" style="" data-original="#dd1c4b"/>
	<path class="" d="m384.94 452.13-0.936 11.88h44.92c-14.92-2.932-29.617-6.902-43.984-11.88z" style="" data-original="#dd1c4b"/>
</g>
<path class="" d="m230.1 338.54 9.904 125.46h48l-1.76-66.776c-21.088-17.146-39.949-36.862-56.144-58.688z" fill="#ffd884" style="" data-original="#ffd884" xmlns="http://www.w3.org/2000/svg"/>
<path class="" d="m408 160.01h-64l-7.128 270.95c15.424 8.341 31.498 15.42 48.064 21.168l23.064-292.12z" fill="#f6f6e7" style="" data-original="#f6f6e7" xmlns="http://www.w3.org/2000/svg"/>
<path class="" d="m336.88 430.96-0.872 33.048h48l0.936-11.88c-16.566-5.749-32.639-12.828-48.064-21.168z" fill="#ffd884" style="" data-original="#ffd884" xmlns="http://www.w3.org/2000/svg"/>
<path class="" d="m168 224.01-18.464 240h-123.07l-18.464-240" fill="#a71132" style="" data-original="#e3472c" xmlns="http://www.w3.org/2000/svg"/>
<path class="" d="m8.004 224.01 18.464 240h29.536v-240h-48z" fill="#3c0c36" style="" data-original="#dd1c4b" xmlns="http://www.w3.org/2000/svg"/>
<path class="" d="m4e-3 192.01h176v32h-176v-32z" fill="#f6f6e7" style="" data-original="#f6f6e7" xmlns="http://www.w3.org/2000/svg"/>
<path class="" d="m4e-3 192.01h32v32h-32v-32z" fill="#ffd884" style="" data-original="#ffd884" xmlns="http://www.w3.org/2000/svg"/>
<path class="" d="m130.03 310.02c-11.261-3.752-23.653-1.63-33.024 5.656l-23.4 18.184c-14.231 11.067-34.497 9.711-47.128-3.152l-11.2-11.28 4.392 57.024 40.656 4.76c12.209 1.771 24.461-2.924 32.36-12.4 9.508-11.412 25.116-15.699 39.12-10.744l25.208 8.912 3.752-48.8-30.736-8.16z" fill="#f6f6e7" style="" data-original="#f6f6e7" xmlns="http://www.w3.org/2000/svg"/>
<path class="" d="m104 192.01-24-104h-80v32h56l16 72h32z" fill="#3c0c36" style="" data-original="#2bb3ce" xmlns="http://www.w3.org/2000/svg"/>
<path class="" d="m64.004 104.01 20.304 88h19.696l-24-104h-80v16h64z" fill="#a71132" style="" data-original="#88d0ef" xmlns="http://www.w3.org/2000/svg"/>
<path class="" d="m56.004 341.07c-10.913 1.295-21.809-2.547-29.496-10.4l-11.2-11.28 4.392 57.024 36.304 4.28v-39.624z" fill="#ffd884" style="" data-original="#ffd884" xmlns="http://www.w3.org/2000/svg"/>
</svg>
